<svg width="23" height="23" viewBox="0 0 23 23" fill="none" xmlns="http://www.w3.org/2000/svg">
<path d="M2.35173 15.3913C2.6213 15.6608 2.98687 15.8122 3.36804 15.8122C3.74921 15.8122 4.11478 15.6608 4.38435 15.3913L11.5 8.27569L18.6156 15.3913C18.8867 15.6532 19.2498 15.7981 19.6267 15.7948C20.0036 15.7915 20.3642 15.6403 20.6307 15.3738C20.8972 15.1073 21.0484 14.7467 21.0517 14.3698C21.0549 13.9929 20.9101 13.6298 20.6482 13.3587L12.5163 5.22675C12.2467 4.95726 11.8811 4.80587 11.5 4.80587C11.1188 4.80587 10.7532 4.95726 10.4837 5.22675L2.35173 13.3587C2.08224 13.6283 1.93085 13.9938 1.93085 14.375C1.93085 14.7562 2.08224 15.1217 2.35173 15.3913Z" fill="#181818"/>
</svg>
